<mxfile host="app.diagrams.net" modified="2021-06-01T16:47:09.222Z" agent="5.0 (Windows NT 10.0; Win64; x64) AppleWebKit/537.36 (KHTML, like Gecko) Chrome/90.0.4430.212 Safari/537.36" etag="7stryLtWcolSTkDzvpWh" version="14.7.3" type="github">
  <diagram id="z7SG7Hr0iR8G56kf4RJj" name="Page-1">
    <mxGraphModel dx="1108" dy="482" grid="1" gridSize="10" guides="1" tooltips="1" connect="1" arrows="1" fold="1" page="1" pageScale="1" pageWidth="850" pageHeight="1100" math="0" shadow="0">
      <root>
        <mxCell id="0" />
        <mxCell id="1" parent="0" />
        <mxCell id="qjaNSSdb6F6lsbRKP05E-1" value="Passanger" style="swimlane;fontStyle=1;align=center;verticalAlign=top;childLayout=stackLayout;horizontal=1;startSize=26;horizontalStack=0;resizeParent=1;resizeParentMax=0;resizeLast=0;collapsible=1;marginBottom=0;" vertex="1" parent="1">
          <mxGeometry x="900" y="260" width="160" height="164" as="geometry" />
        </mxCell>
        <mxCell id="qjaNSSdb6F6lsbRKP05E-2" value="- id : int" style="text;strokeColor=none;fillColor=none;align=left;verticalAlign=top;spacingLeft=4;spacingRight=4;overflow=hidden;rotatable=0;points=[[0,0.5],[1,0.5]];portConstraint=eastwest;" vertex="1" parent="qjaNSSdb6F6lsbRKP05E-1">
          <mxGeometry y="26" width="160" height="26" as="geometry" />
        </mxCell>
        <mxCell id="qjaNSSdb6F6lsbRKP05E-3" value="- address : Address" style="text;strokeColor=none;fillColor=none;align=left;verticalAlign=top;spacingLeft=4;spacingRight=4;overflow=hidden;rotatable=0;points=[[0,0.5],[1,0.5]];portConstraint=eastwest;" vertex="1" parent="qjaNSSdb6F6lsbRKP05E-1">
          <mxGeometry y="52" width="160" height="26" as="geometry" />
        </mxCell>
        <mxCell id="qjaNSSdb6F6lsbRKP05E-4" value="- contact : Contact" style="text;strokeColor=none;fillColor=none;align=left;verticalAlign=top;spacingLeft=4;spacingRight=4;overflow=hidden;rotatable=0;points=[[0,0.5],[1,0.5]];portConstraint=eastwest;" vertex="1" parent="qjaNSSdb6F6lsbRKP05E-1">
          <mxGeometry y="78" width="160" height="26" as="geometry" />
        </mxCell>
        <mxCell id="qjaNSSdb6F6lsbRKP05E-5" value="" style="line;strokeWidth=1;fillColor=none;align=left;verticalAlign=middle;spacingTop=-1;spacingLeft=3;spacingRight=3;rotatable=0;labelPosition=right;points=[];portConstraint=eastwest;" vertex="1" parent="qjaNSSdb6F6lsbRKP05E-1">
          <mxGeometry y="104" width="160" height="8" as="geometry" />
        </mxCell>
        <mxCell id="qjaNSSdb6F6lsbRKP05E-6" value="+ getContact() : Contact " style="text;strokeColor=none;fillColor=none;align=left;verticalAlign=top;spacingLeft=4;spacingRight=4;overflow=hidden;rotatable=0;points=[[0,0.5],[1,0.5]];portConstraint=eastwest;" vertex="1" parent="qjaNSSdb6F6lsbRKP05E-1">
          <mxGeometry y="112" width="160" height="26" as="geometry" />
        </mxCell>
        <mxCell id="qjaNSSdb6F6lsbRKP05E-7" value="+ getAddress(): Address" style="text;strokeColor=none;fillColor=none;align=left;verticalAlign=top;spacingLeft=4;spacingRight=4;overflow=hidden;rotatable=0;points=[[0,0.5],[1,0.5]];portConstraint=eastwest;" vertex="1" parent="qjaNSSdb6F6lsbRKP05E-1">
          <mxGeometry y="138" width="160" height="26" as="geometry" />
        </mxCell>
        <mxCell id="qjaNSSdb6F6lsbRKP05E-8" value="Address" style="swimlane;fontStyle=1;align=center;verticalAlign=top;childLayout=stackLayout;horizontal=1;startSize=26;horizontalStack=0;resizeParent=1;resizeParentMax=0;resizeLast=0;collapsible=1;marginBottom=0;" vertex="1" parent="1">
          <mxGeometry x="360" y="260" width="290" height="164" as="geometry" />
        </mxCell>
        <mxCell id="qjaNSSdb6F6lsbRKP05E-9" value="+ street : String" style="text;strokeColor=none;fillColor=none;align=left;verticalAlign=top;spacingLeft=4;spacingRight=4;overflow=hidden;rotatable=0;points=[[0,0.5],[1,0.5]];portConstraint=eastwest;" vertex="1" parent="qjaNSSdb6F6lsbRKP05E-8">
          <mxGeometry y="26" width="290" height="26" as="geometry" />
        </mxCell>
        <mxCell id="qjaNSSdb6F6lsbRKP05E-10" value="+ city : String" style="text;strokeColor=none;fillColor=none;align=left;verticalAlign=top;spacingLeft=4;spacingRight=4;overflow=hidden;rotatable=0;points=[[0,0.5],[1,0.5]];portConstraint=eastwest;" vertex="1" parent="qjaNSSdb6F6lsbRKP05E-8">
          <mxGeometry y="52" width="290" height="26" as="geometry" />
        </mxCell>
        <mxCell id="qjaNSSdb6F6lsbRKP05E-11" value="+ state : String" style="text;strokeColor=none;fillColor=none;align=left;verticalAlign=top;spacingLeft=4;spacingRight=4;overflow=hidden;rotatable=0;points=[[0,0.5],[1,0.5]];portConstraint=eastwest;" vertex="1" parent="qjaNSSdb6F6lsbRKP05E-8">
          <mxGeometry y="78" width="290" height="26" as="geometry" />
        </mxCell>
        <mxCell id="qjaNSSdb6F6lsbRKP05E-12" value="" style="line;strokeWidth=1;fillColor=none;align=left;verticalAlign=middle;spacingTop=-1;spacingLeft=3;spacingRight=3;rotatable=0;labelPosition=right;points=[];portConstraint=eastwest;" vertex="1" parent="qjaNSSdb6F6lsbRKP05E-8">
          <mxGeometry y="104" width="290" height="8" as="geometry" />
        </mxCell>
        <mxCell id="qjaNSSdb6F6lsbRKP05E-13" value="+ getAddressDetais():String" style="text;strokeColor=none;fillColor=none;align=left;verticalAlign=top;spacingLeft=4;spacingRight=4;overflow=hidden;rotatable=0;points=[[0,0.5],[1,0.5]];portConstraint=eastwest;" vertex="1" parent="qjaNSSdb6F6lsbRKP05E-8">
          <mxGeometry y="112" width="290" height="26" as="geometry" />
        </mxCell>
        <mxCell id="qjaNSSdb6F6lsbRKP05E-14" value="+ updateAddressDetails(addressDetail : String):void" style="text;strokeColor=none;fillColor=none;align=left;verticalAlign=top;spacingLeft=4;spacingRight=4;overflow=hidden;rotatable=0;points=[[0,0.5],[1,0.5]];portConstraint=eastwest;" vertex="1" parent="qjaNSSdb6F6lsbRKP05E-8">
          <mxGeometry y="138" width="290" height="26" as="geometry" />
        </mxCell>
        <mxCell id="qjaNSSdb6F6lsbRKP05E-15" value="Contact" style="swimlane;fontStyle=1;align=center;verticalAlign=top;childLayout=stackLayout;horizontal=1;startSize=26;horizontalStack=0;resizeParent=1;resizeParentMax=0;resizeLast=0;collapsible=1;marginBottom=0;" vertex="1" parent="1">
          <mxGeometry x="1240" y="260" width="260" height="164" as="geometry" />
        </mxCell>
        <mxCell id="qjaNSSdb6F6lsbRKP05E-16" value="+ name : String" style="text;strokeColor=none;fillColor=none;align=left;verticalAlign=top;spacingLeft=4;spacingRight=4;overflow=hidden;rotatable=0;points=[[0,0.5],[1,0.5]];portConstraint=eastwest;" vertex="1" parent="qjaNSSdb6F6lsbRKP05E-15">
          <mxGeometry y="26" width="260" height="26" as="geometry" />
        </mxCell>
        <mxCell id="qjaNSSdb6F6lsbRKP05E-17" value="+ phone : String" style="text;strokeColor=none;fillColor=none;align=left;verticalAlign=top;spacingLeft=4;spacingRight=4;overflow=hidden;rotatable=0;points=[[0,0.5],[1,0.5]];portConstraint=eastwest;" vertex="1" parent="qjaNSSdb6F6lsbRKP05E-15">
          <mxGeometry y="52" width="260" height="26" as="geometry" />
        </mxCell>
        <mxCell id="qjaNSSdb6F6lsbRKP05E-18" value="+ email : String" style="text;strokeColor=none;fillColor=none;align=left;verticalAlign=top;spacingLeft=4;spacingRight=4;overflow=hidden;rotatable=0;points=[[0,0.5],[1,0.5]];portConstraint=eastwest;" vertex="1" parent="qjaNSSdb6F6lsbRKP05E-15">
          <mxGeometry y="78" width="260" height="26" as="geometry" />
        </mxCell>
        <mxCell id="qjaNSSdb6F6lsbRKP05E-19" value="" style="line;strokeWidth=1;fillColor=none;align=left;verticalAlign=middle;spacingTop=-1;spacingLeft=3;spacingRight=3;rotatable=0;labelPosition=right;points=[];portConstraint=eastwest;" vertex="1" parent="qjaNSSdb6F6lsbRKP05E-15">
          <mxGeometry y="104" width="260" height="8" as="geometry" />
        </mxCell>
        <mxCell id="qjaNSSdb6F6lsbRKP05E-20" value="+ getContactDetails():String" style="text;strokeColor=none;fillColor=none;align=left;verticalAlign=top;spacingLeft=4;spacingRight=4;overflow=hidden;rotatable=0;points=[[0,0.5],[1,0.5]];portConstraint=eastwest;" vertex="1" parent="qjaNSSdb6F6lsbRKP05E-15">
          <mxGeometry y="112" width="260" height="26" as="geometry" />
        </mxCell>
        <mxCell id="qjaNSSdb6F6lsbRKP05E-21" value="+ getContactDetails(contactDetail:String):void" style="text;strokeColor=none;fillColor=none;align=left;verticalAlign=top;spacingLeft=4;spacingRight=4;overflow=hidden;rotatable=0;points=[[0,0.5],[1,0.5]];portConstraint=eastwest;" vertex="1" parent="qjaNSSdb6F6lsbRKP05E-15">
          <mxGeometry y="138" width="260" height="26" as="geometry" />
        </mxCell>
        <mxCell id="qjaNSSdb6F6lsbRKP05E-22" value="Flight" style="swimlane;fontStyle=1;align=center;verticalAlign=top;childLayout=stackLayout;horizontal=1;startSize=26;horizontalStack=0;resizeParent=1;resizeParentMax=0;resizeLast=0;collapsible=1;marginBottom=0;" vertex="1" parent="1">
          <mxGeometry x="500" y="550" width="220" height="216" as="geometry" />
        </mxCell>
        <mxCell id="qjaNSSdb6F6lsbRKP05E-23" value="- flightNumber :String" style="text;strokeColor=none;fillColor=none;align=left;verticalAlign=top;spacingLeft=4;spacingRight=4;overflow=hidden;rotatable=0;points=[[0,0.5],[1,0.5]];portConstraint=eastwest;" vertex="1" parent="qjaNSSdb6F6lsbRKP05E-22">
          <mxGeometry y="26" width="220" height="26" as="geometry" />
        </mxCell>
        <mxCell id="qjaNSSdb6F6lsbRKP05E-24" value="- airline :String" style="text;strokeColor=none;fillColor=none;align=left;verticalAlign=top;spacingLeft=4;spacingRight=4;overflow=hidden;rotatable=0;points=[[0,0.5],[1,0.5]];portConstraint=eastwest;" vertex="1" parent="qjaNSSdb6F6lsbRKP05E-22">
          <mxGeometry y="52" width="220" height="26" as="geometry" />
        </mxCell>
        <mxCell id="qjaNSSdb6F6lsbRKP05E-25" value="- capacity : int " style="text;strokeColor=none;fillColor=none;align=left;verticalAlign=top;spacingLeft=4;spacingRight=4;overflow=hidden;rotatable=0;points=[[0,0.5],[1,0.5]];portConstraint=eastwest;" vertex="1" parent="qjaNSSdb6F6lsbRKP05E-22">
          <mxGeometry y="78" width="220" height="26" as="geometry" />
        </mxCell>
        <mxCell id="qjaNSSdb6F6lsbRKP05E-26" value="- bookedSeats : int" style="text;strokeColor=none;fillColor=none;align=left;verticalAlign=top;spacingLeft=4;spacingRight=4;overflow=hidden;rotatable=0;points=[[0,0.5],[1,0.5]];portConstraint=eastwest;" vertex="1" parent="qjaNSSdb6F6lsbRKP05E-22">
          <mxGeometry y="104" width="220" height="26" as="geometry" />
        </mxCell>
        <mxCell id="qjaNSSdb6F6lsbRKP05E-27" value="" style="line;strokeWidth=1;fillColor=none;align=left;verticalAlign=middle;spacingTop=-1;spacingLeft=3;spacingRight=3;rotatable=0;labelPosition=right;points=[];portConstraint=eastwest;" vertex="1" parent="qjaNSSdb6F6lsbRKP05E-22">
          <mxGeometry y="130" width="220" height="8" as="geometry" />
        </mxCell>
        <mxCell id="qjaNSSdb6F6lsbRKP05E-28" value="+ getFlightDetails():String" style="text;strokeColor=none;fillColor=none;align=left;verticalAlign=top;spacingLeft=4;spacingRight=4;overflow=hidden;rotatable=0;points=[[0,0.5],[1,0.5]];portConstraint=eastwest;" vertex="1" parent="qjaNSSdb6F6lsbRKP05E-22">
          <mxGeometry y="138" width="220" height="26" as="geometry" />
        </mxCell>
        <mxCell id="qjaNSSdb6F6lsbRKP05E-29" value="+ checkAvailability(): boolean" style="text;strokeColor=none;fillColor=none;align=left;verticalAlign=top;spacingLeft=4;spacingRight=4;overflow=hidden;rotatable=0;points=[[0,0.5],[1,0.5]];portConstraint=eastwest;" vertex="1" parent="qjaNSSdb6F6lsbRKP05E-22">
          <mxGeometry y="164" width="220" height="26" as="geometry" />
        </mxCell>
        <mxCell id="qjaNSSdb6F6lsbRKP05E-30" value="+ incrementBookingCounter():void" style="text;strokeColor=none;fillColor=none;align=left;verticalAlign=top;spacingLeft=4;spacingRight=4;overflow=hidden;rotatable=0;points=[[0,0.5],[1,0.5]];portConstraint=eastwest;" vertex="1" parent="qjaNSSdb6F6lsbRKP05E-22">
          <mxGeometry y="190" width="220" height="26" as="geometry" />
        </mxCell>
        <mxCell id="qjaNSSdb6F6lsbRKP05E-31" value="Ticket" style="swimlane;fontStyle=1;align=center;verticalAlign=top;childLayout=stackLayout;horizontal=1;startSize=26;horizontalStack=0;resizeParent=1;resizeParentMax=0;resizeLast=0;collapsible=1;marginBottom=0;" vertex="1" parent="1">
          <mxGeometry x="910" y="530" width="270" height="370" as="geometry" />
        </mxCell>
        <mxCell id="qjaNSSdb6F6lsbRKP05E-32" value="- pnr : String" style="text;strokeColor=none;fillColor=none;align=left;verticalAlign=top;spacingLeft=4;spacingRight=4;overflow=hidden;rotatable=0;points=[[0,0.5],[1,0.5]];portConstraint=eastwest;" vertex="1" parent="qjaNSSdb6F6lsbRKP05E-31">
          <mxGeometry y="26" width="270" height="26" as="geometry" />
        </mxCell>
        <mxCell id="qjaNSSdb6F6lsbRKP05E-33" value="- from : String" style="text;strokeColor=none;fillColor=none;align=left;verticalAlign=top;spacingLeft=4;spacingRight=4;overflow=hidden;rotatable=0;points=[[0,0.5],[1,0.5]];portConstraint=eastwest;" vertex="1" parent="qjaNSSdb6F6lsbRKP05E-31">
          <mxGeometry y="52" width="270" height="26" as="geometry" />
        </mxCell>
        <mxCell id="qjaNSSdb6F6lsbRKP05E-34" value="- to : String" style="text;strokeColor=none;fillColor=none;align=left;verticalAlign=top;spacingLeft=4;spacingRight=4;overflow=hidden;rotatable=0;points=[[0,0.5],[1,0.5]];portConstraint=eastwest;" vertex="1" parent="qjaNSSdb6F6lsbRKP05E-31">
          <mxGeometry y="78" width="270" height="26" as="geometry" />
        </mxCell>
        <mxCell id="qjaNSSdb6F6lsbRKP05E-35" value="- flight : Flight" style="text;strokeColor=none;fillColor=none;align=left;verticalAlign=top;spacingLeft=4;spacingRight=4;overflow=hidden;rotatable=0;points=[[0,0.5],[1,0.5]];portConstraint=eastwest;" vertex="1" parent="qjaNSSdb6F6lsbRKP05E-31">
          <mxGeometry y="104" width="270" height="26" as="geometry" />
        </mxCell>
        <mxCell id="qjaNSSdb6F6lsbRKP05E-36" value="- depratureDateTime:String" style="text;strokeColor=none;fillColor=none;align=left;verticalAlign=top;spacingLeft=4;spacingRight=4;overflow=hidden;rotatable=0;points=[[0,0.5],[1,0.5]];portConstraint=eastwest;" vertex="1" parent="qjaNSSdb6F6lsbRKP05E-31">
          <mxGeometry y="130" width="270" height="26" as="geometry" />
        </mxCell>
        <mxCell id="qjaNSSdb6F6lsbRKP05E-37" value="- arrivalDateTime : String" style="text;strokeColor=none;fillColor=none;align=left;verticalAlign=top;spacingLeft=4;spacingRight=4;overflow=hidden;rotatable=0;points=[[0,0.5],[1,0.5]];portConstraint=eastwest;" vertex="1" parent="qjaNSSdb6F6lsbRKP05E-31">
          <mxGeometry y="156" width="270" height="24" as="geometry" />
        </mxCell>
        <mxCell id="qjaNSSdb6F6lsbRKP05E-38" value="- passanger : Passanger" style="text;strokeColor=none;fillColor=none;align=left;verticalAlign=top;spacingLeft=4;spacingRight=4;overflow=hidden;rotatable=0;points=[[0,0.5],[1,0.5]];portConstraint=eastwest;" vertex="1" parent="qjaNSSdb6F6lsbRKP05E-31">
          <mxGeometry y="180" width="270" height="26" as="geometry" />
        </mxCell>
        <mxCell id="qjaNSSdb6F6lsbRKP05E-39" value="- seatNo: Sring" style="text;strokeColor=none;fillColor=none;align=left;verticalAlign=top;spacingLeft=4;spacingRight=4;overflow=hidden;rotatable=0;points=[[0,0.5],[1,0.5]];portConstraint=eastwest;" vertex="1" parent="qjaNSSdb6F6lsbRKP05E-31">
          <mxGeometry y="206" width="270" height="26" as="geometry" />
        </mxCell>
        <mxCell id="qjaNSSdb6F6lsbRKP05E-40" value="- price : float" style="text;strokeColor=none;fillColor=none;align=left;verticalAlign=top;spacingLeft=4;spacingRight=4;overflow=hidden;rotatable=0;points=[[0,0.5],[1,0.5]];portConstraint=eastwest;" vertex="1" parent="qjaNSSdb6F6lsbRKP05E-31">
          <mxGeometry y="232" width="270" height="26" as="geometry" />
        </mxCell>
        <mxCell id="qjaNSSdb6F6lsbRKP05E-41" value="- canceeled : boolean" style="text;strokeColor=none;fillColor=none;align=left;verticalAlign=top;spacingLeft=4;spacingRight=4;overflow=hidden;rotatable=0;points=[[0,0.5],[1,0.5]];portConstraint=eastwest;" vertex="1" parent="qjaNSSdb6F6lsbRKP05E-31">
          <mxGeometry y="258" width="270" height="26" as="geometry" />
        </mxCell>
        <mxCell id="qjaNSSdb6F6lsbRKP05E-42" value="" style="line;strokeWidth=1;fillColor=none;align=left;verticalAlign=middle;spacingTop=-1;spacingLeft=3;spacingRight=3;rotatable=0;labelPosition=right;points=[];portConstraint=eastwest;" vertex="1" parent="qjaNSSdb6F6lsbRKP05E-31">
          <mxGeometry y="284" width="270" height="8" as="geometry" />
        </mxCell>
        <mxCell id="qjaNSSdb6F6lsbRKP05E-43" value="+ checkStatus(): String" style="text;strokeColor=none;fillColor=none;align=left;verticalAlign=top;spacingLeft=4;spacingRight=4;overflow=hidden;rotatable=0;points=[[0,0.5],[1,0.5]];portConstraint=eastwest;" vertex="1" parent="qjaNSSdb6F6lsbRKP05E-31">
          <mxGeometry y="292" width="270" height="26" as="geometry" />
        </mxCell>
        <mxCell id="qjaNSSdb6F6lsbRKP05E-44" value="+ getFlightDuration():int" style="text;strokeColor=none;fillColor=none;align=left;verticalAlign=top;spacingLeft=4;spacingRight=4;overflow=hidden;rotatable=0;points=[[0,0.5],[1,0.5]];portConstraint=eastwest;" vertex="1" parent="qjaNSSdb6F6lsbRKP05E-31">
          <mxGeometry y="318" width="270" height="26" as="geometry" />
        </mxCell>
        <mxCell id="qjaNSSdb6F6lsbRKP05E-45" value="+ cancelled(): void" style="text;strokeColor=none;fillColor=none;align=left;verticalAlign=top;spacingLeft=4;spacingRight=4;overflow=hidden;rotatable=0;points=[[0,0.5],[1,0.5]];portConstraint=eastwest;" vertex="1" parent="qjaNSSdb6F6lsbRKP05E-31">
          <mxGeometry y="344" width="270" height="26" as="geometry" />
        </mxCell>
        <mxCell id="qjaNSSdb6F6lsbRKP05E-46" value="RegularTicket" style="swimlane;fontStyle=1;align=center;verticalAlign=top;childLayout=stackLayout;horizontal=1;startSize=26;horizontalStack=0;resizeParent=1;resizeParentMax=0;resizeLast=0;collapsible=1;marginBottom=0;" vertex="1" parent="1">
          <mxGeometry x="480" y="1070" width="350" height="112" as="geometry" />
        </mxCell>
        <mxCell id="qjaNSSdb6F6lsbRKP05E-47" value="- specialServices : String" style="text;strokeColor=none;fillColor=none;align=left;verticalAlign=top;spacingLeft=4;spacingRight=4;overflow=hidden;rotatable=0;points=[[0,0.5],[1,0.5]];portConstraint=eastwest;" vertex="1" parent="qjaNSSdb6F6lsbRKP05E-46">
          <mxGeometry y="26" width="350" height="26" as="geometry" />
        </mxCell>
        <mxCell id="qjaNSSdb6F6lsbRKP05E-48" value="" style="line;strokeWidth=1;fillColor=none;align=left;verticalAlign=middle;spacingTop=-1;spacingLeft=3;spacingRight=3;rotatable=0;labelPosition=right;points=[];portConstraint=eastwest;" vertex="1" parent="qjaNSSdb6F6lsbRKP05E-46">
          <mxGeometry y="52" width="350" height="8" as="geometry" />
        </mxCell>
        <mxCell id="qjaNSSdb6F6lsbRKP05E-49" value="+ getSpecialServices():String" style="text;strokeColor=none;fillColor=none;align=left;verticalAlign=top;spacingLeft=4;spacingRight=4;overflow=hidden;rotatable=0;points=[[0,0.5],[1,0.5]];portConstraint=eastwest;" vertex="1" parent="qjaNSSdb6F6lsbRKP05E-46">
          <mxGeometry y="60" width="350" height="26" as="geometry" />
        </mxCell>
        <mxCell id="qjaNSSdb6F6lsbRKP05E-50" value="+ updateSpecialServices(specialServices : String):void" style="text;strokeColor=none;fillColor=none;align=left;verticalAlign=top;spacingLeft=4;spacingRight=4;overflow=hidden;rotatable=0;points=[[0,0.5],[1,0.5]];portConstraint=eastwest;" vertex="1" parent="qjaNSSdb6F6lsbRKP05E-46">
          <mxGeometry y="86" width="350" height="26" as="geometry" />
        </mxCell>
        <mxCell id="qjaNSSdb6F6lsbRKP05E-51" value="TouristTicket" style="swimlane;fontStyle=1;align=center;verticalAlign=top;childLayout=stackLayout;horizontal=1;startSize=26;horizontalStack=0;resizeParent=1;resizeParentMax=0;resizeLast=0;collapsible=1;marginBottom=0;" vertex="1" parent="1">
          <mxGeometry x="1090" y="1070" width="310" height="190" as="geometry" />
        </mxCell>
        <mxCell id="qjaNSSdb6F6lsbRKP05E-52" value="- hotelAddress : String" style="text;strokeColor=none;fillColor=none;align=left;verticalAlign=top;spacingLeft=4;spacingRight=4;overflow=hidden;rotatable=0;points=[[0,0.5],[1,0.5]];portConstraint=eastwest;" vertex="1" parent="qjaNSSdb6F6lsbRKP05E-51">
          <mxGeometry y="26" width="310" height="26" as="geometry" />
        </mxCell>
        <mxCell id="qjaNSSdb6F6lsbRKP05E-53" value="- selectedTouristLocation : String[0...5]" style="text;strokeColor=none;fillColor=none;align=left;verticalAlign=top;spacingLeft=4;spacingRight=4;overflow=hidden;rotatable=0;points=[[0,0.5],[1,0.5]];portConstraint=eastwest;" vertex="1" parent="qjaNSSdb6F6lsbRKP05E-51">
          <mxGeometry y="52" width="310" height="26" as="geometry" />
        </mxCell>
        <mxCell id="qjaNSSdb6F6lsbRKP05E-54" value="" style="line;strokeWidth=1;fillColor=none;align=left;verticalAlign=middle;spacingTop=-1;spacingLeft=3;spacingRight=3;rotatable=0;labelPosition=right;points=[];portConstraint=eastwest;" vertex="1" parent="qjaNSSdb6F6lsbRKP05E-51">
          <mxGeometry y="78" width="310" height="8" as="geometry" />
        </mxCell>
        <mxCell id="qjaNSSdb6F6lsbRKP05E-55" value="+ getHotelAddress():String" style="text;strokeColor=none;fillColor=none;align=left;verticalAlign=top;spacingLeft=4;spacingRight=4;overflow=hidden;rotatable=0;points=[[0,0.5],[1,0.5]];portConstraint=eastwest;" vertex="1" parent="qjaNSSdb6F6lsbRKP05E-51">
          <mxGeometry y="86" width="310" height="26" as="geometry" />
        </mxCell>
        <mxCell id="qjaNSSdb6F6lsbRKP05E-56" value="+ getTouristeLocations():String[0...5]" style="text;strokeColor=none;fillColor=none;align=left;verticalAlign=top;spacingLeft=4;spacingRight=4;overflow=hidden;rotatable=0;points=[[0,0.5],[1,0.5]];portConstraint=eastwest;" vertex="1" parent="qjaNSSdb6F6lsbRKP05E-51">
          <mxGeometry y="112" width="310" height="26" as="geometry" />
        </mxCell>
        <mxCell id="qjaNSSdb6F6lsbRKP05E-57" value="+ removeTouristeLocations(location:String):void" style="text;strokeColor=none;fillColor=none;align=left;verticalAlign=top;spacingLeft=4;spacingRight=4;overflow=hidden;rotatable=0;points=[[0,0.5],[1,0.5]];portConstraint=eastwest;" vertex="1" parent="qjaNSSdb6F6lsbRKP05E-51">
          <mxGeometry y="138" width="310" height="26" as="geometry" />
        </mxCell>
        <mxCell id="qjaNSSdb6F6lsbRKP05E-58" value="+ addTouristeLocations(location:String):void" style="text;strokeColor=none;fillColor=none;align=left;verticalAlign=top;spacingLeft=4;spacingRight=4;overflow=hidden;rotatable=0;points=[[0,0.5],[1,0.5]];portConstraint=eastwest;" vertex="1" parent="qjaNSSdb6F6lsbRKP05E-51">
          <mxGeometry y="164" width="310" height="26" as="geometry" />
        </mxCell>
        <mxCell id="qjaNSSdb6F6lsbRKP05E-59" value="Extends" style="endArrow=block;endSize=16;endFill=0;html=1;exitX=0.626;exitY=-0.027;exitDx=0;exitDy=0;exitPerimeter=0;" edge="1" parent="1" source="qjaNSSdb6F6lsbRKP05E-46">
          <mxGeometry width="160" relative="1" as="geometry">
            <mxPoint x="640" y="1020" as="sourcePoint" />
            <mxPoint x="1000" y="910" as="targetPoint" />
          </mxGeometry>
        </mxCell>
        <mxCell id="qjaNSSdb6F6lsbRKP05E-60" value="Extends" style="endArrow=block;endSize=16;endFill=0;html=1;exitX=0.5;exitY=0;exitDx=0;exitDy=0;" edge="1" parent="1" source="qjaNSSdb6F6lsbRKP05E-51">
          <mxGeometry width="160" relative="1" as="geometry">
            <mxPoint x="1230" y="1060" as="sourcePoint" />
            <mxPoint x="1060" y="910" as="targetPoint" />
          </mxGeometry>
        </mxCell>
        <mxCell id="qjaNSSdb6F6lsbRKP05E-61" value="" style="endArrow=diamondThin;endFill=1;endSize=24;html=1;exitX=0.99;exitY=-0.115;exitDx=0;exitDy=0;exitPerimeter=0;entryX=0;entryY=0.115;entryDx=0;entryDy=0;entryPerimeter=0;" edge="1" parent="1" source="qjaNSSdb6F6lsbRKP05E-11" target="qjaNSSdb6F6lsbRKP05E-4">
          <mxGeometry width="160" relative="1" as="geometry">
            <mxPoint x="750" y="340" as="sourcePoint" />
            <mxPoint x="910" y="340" as="targetPoint" />
          </mxGeometry>
        </mxCell>
        <mxCell id="qjaNSSdb6F6lsbRKP05E-62" value="" style="endArrow=diamondThin;endFill=1;endSize=24;html=1;entryX=1;entryY=0.5;entryDx=0;entryDy=0;exitX=0;exitY=0.5;exitDx=0;exitDy=0;" edge="1" parent="1" source="qjaNSSdb6F6lsbRKP05E-18" target="qjaNSSdb6F6lsbRKP05E-4">
          <mxGeometry width="160" relative="1" as="geometry">
            <mxPoint x="1280" y="380" as="sourcePoint" />
            <mxPoint x="1250" y="350" as="targetPoint" />
          </mxGeometry>
        </mxCell>
        <mxCell id="qjaNSSdb6F6lsbRKP05E-63" value="" style="endArrow=diamondThin;endFill=0;endSize=24;html=1;exitX=0.656;exitY=1.231;exitDx=0;exitDy=0;exitPerimeter=0;" edge="1" parent="1" source="qjaNSSdb6F6lsbRKP05E-7">
          <mxGeometry width="160" relative="1" as="geometry">
            <mxPoint x="900" y="460" as="sourcePoint" />
            <mxPoint x="1005" y="530" as="targetPoint" />
          </mxGeometry>
        </mxCell>
        <mxCell id="qjaNSSdb6F6lsbRKP05E-64" value="1" style="text;html=1;align=center;verticalAlign=middle;resizable=0;points=[];autosize=1;strokeColor=none;" vertex="1" parent="1">
          <mxGeometry x="740" y="320" width="20" height="20" as="geometry" />
        </mxCell>
        <mxCell id="qjaNSSdb6F6lsbRKP05E-65" value="1" style="text;html=1;align=center;verticalAlign=middle;resizable=0;points=[];autosize=1;strokeColor=none;" vertex="1" parent="1">
          <mxGeometry x="860" y="320" width="20" height="20" as="geometry" />
        </mxCell>
        <mxCell id="qjaNSSdb6F6lsbRKP05E-66" value="1" style="text;html=1;align=center;verticalAlign=middle;resizable=0;points=[];autosize=1;strokeColor=none;" vertex="1" parent="1">
          <mxGeometry x="1080" y="330" width="20" height="20" as="geometry" />
        </mxCell>
        <mxCell id="qjaNSSdb6F6lsbRKP05E-67" value="1" style="text;html=1;align=center;verticalAlign=middle;resizable=0;points=[];autosize=1;strokeColor=none;" vertex="1" parent="1">
          <mxGeometry x="1270" y="330" width="20" height="20" as="geometry" />
        </mxCell>
        <mxCell id="qjaNSSdb6F6lsbRKP05E-68" value="1" style="text;html=1;align=center;verticalAlign=middle;resizable=0;points=[];autosize=1;strokeColor=none;" vertex="1" parent="1">
          <mxGeometry x="1000" y="420" width="20" height="20" as="geometry" />
        </mxCell>
        <mxCell id="qjaNSSdb6F6lsbRKP05E-69" value="1" style="text;html=1;align=center;verticalAlign=middle;resizable=0;points=[];autosize=1;strokeColor=none;" vertex="1" parent="1">
          <mxGeometry x="1020" y="510" width="20" height="20" as="geometry" />
        </mxCell>
        <mxCell id="qjaNSSdb6F6lsbRKP05E-70" value="1" style="text;html=1;align=center;verticalAlign=middle;resizable=0;points=[];autosize=1;strokeColor=none;" vertex="1" parent="1">
          <mxGeometry x="720" y="610" width="20" height="20" as="geometry" />
        </mxCell>
        <mxCell id="qjaNSSdb6F6lsbRKP05E-71" value="1" style="text;html=1;align=center;verticalAlign=middle;resizable=0;points=[];autosize=1;strokeColor=none;" vertex="1" parent="1">
          <mxGeometry x="890" y="600" width="20" height="20" as="geometry" />
        </mxCell>
        <mxCell id="qjaNSSdb6F6lsbRKP05E-72" value="" style="endArrow=diamondThin;endFill=0;endSize=24;html=1;entryX=0;entryY=0.269;entryDx=0;entryDy=0;entryPerimeter=0;" edge="1" parent="1" source="qjaNSSdb6F6lsbRKP05E-25" target="qjaNSSdb6F6lsbRKP05E-35">
          <mxGeometry width="160" relative="1" as="geometry">
            <mxPoint x="720" y="641" as="sourcePoint" />
            <mxPoint x="880" y="641" as="targetPoint" />
          </mxGeometry>
        </mxCell>
      </root>
    </mxGraphModel>
  </diagram>
</mxfile>
